Source - Gangster.Squad.2013.720p.WEB-DL.H264-IRONCLUB 3.28GB (Thumbs Up + Respect)

NOTES - Just to prove we can play with the big boys  and appologies did say was gonna have 6 channel audio but the web download only has 2 channel but never mind  enjoy.

General
Complete name                            : Gangster Squad 2013 720p WEB-DL x264-SSDD (HQ).mp4
Format                                   : MPEG-4
Format profile                           : Base Media
Codec ID                                 : isom
File size                                : 2.20 GiB
Duration                                 : 1h 52mn
Overall bit rate mode                    : Variable
Overall bit rate                         : 2 789 Kbps

Video
ID                                       : 1
Format                                   : AVC
Format/Info                              : Advanced Video Codec
Format profile                           : High@L4.1
Format settings, CABAC                   : Yes
Format settings, ReFrames                : 4 frames
Codec ID                                 : avc1
Codec ID/Info                            : Advanced Video Coding
Duration                                 : 1h 52mn
Bit rate                                 : 2 529 Kbps
Maximum bit rate                         : 9 192 Kbps
Width                                    : 1 280 pixels
Height                                   : 532 pixels
Display aspect ratio                     : 2.40:1
Frame rate mode                          : Constant
Frame rate                               : 23.976 fps
Color space                              : YUV
Chroma subsampling                       : 4:2:0
Bit depth                                : 8 bits
Scan type                                : Progressive
Bits/(Pixel*Frame)                       : 0.155
Stream size                              : 1.99 GiB (91%)
Writing library                          : x264 core 130 r2273 b3065e6

Audio
ID                                       : 2
Format                                   : AAC
Format/Info                              : Advanced Audio Codec
Format profile                           : LC
Codec ID                                 : 40
Duration                                 : 1h 52mn
Bit rate mode                            : Variable
Bit rate                                 : 256 Kbps
Maximum bit rate                         : 262 Kbps
Channel(s)                               : 2 channels
Channel positions                        : Front: L R
Sampling rate                            : 48.0 KHz
Compression mode                         : Lossy
Stream size                              : 207 MiB (9%)

Screens: 
http://i.imgur.com/SXqwats.png 
http://i.imgur.com/llJ6l0y.png 
http://i.imgur.com/O4YZ0Vs.png 
http://i.imgur.com/7Z2P9zE.jpg
